<svg xmlns="http://www.w3.org/2000/svg" xmlns:xlink="http://www.w3.org/1999/xlink" viewBox="0 0 773.59 799.71"><defs><style>.cls-1{fill:#333;}.cls-2,.cls-3{fill:none;stroke-miterlimit:10;}.cls-2{stroke:#333;stroke-width:3.24px;}.cls-3{stroke:#000;stroke-width:1.62px;}.cls-4{fill:url(#linear-gradient);}.cls-5{fill:url(#linear-gradient-2);}.cls-6{fill:url(#linear-gradient-3);}.cls-7{fill:url(#linear-gradient-4);}.cls-8{fill:url(#linear-gradient-5);}.cls-9{fill:url(#linear-gradient-6);}.cls-10{fill:url(#linear-gradient-7);}.cls-11{fill:url(#linear-gradient-8);}.cls-12{fill:url(#linear-gradient-9);}.cls-13{fill:url(#linear-gradient-10);}.cls-14{fill:#fff;}.cls-15,.cls-22,.cls-29{opacity:0.5;}.cls-15{fill:url(#radial-gradient);}.cls-16{fill:url(#linear-gradient-11);}.cls-17{fill:url(#linear-gradient-12);}.cls-18{fill:url(#linear-gradient-13);}.cls-19{fill:url(#linear-gradient-14);}.cls-20{fill:url(#linear-gradient-15);}.cls-21{fill:url(#linear-gradient-16);}.cls-22{fill:url(#radial-gradient-2);}.cls-23{fill:url(#linear-gradient-17);}.cls-24{fill:url(#linear-gradient-18);}.cls-25{fill:url(#linear-gradient-19);}.cls-26{fill:url(#linear-gradient-20);}.cls-27{fill:url(#linear-gradient-21);}.cls-28{fill:url(#linear-gradient-22);}.cls-29{fill:url(#radial-gradient-3);}.cls-30{fill:url(#linear-gradient-23);}</style><linearGradient id="linear-gradient" x1="2357.71" y1="186.3" x2="2366.23" y2="186.3" gradientTransform="matrix(-1, 0, 0, 1, 3046.91, 0)" gradientUnits="userSpaceOnUse"><stop offset="0" stop-color="#202130"/><stop offset="0.52" stop-color="#1f202e"/><stop offset="0.71" stop-color="#1a1b27"/><stop offset="0.84" stop-color="#12131c"/><stop offset="0.95" stop-color="#07070b"/><stop offset="1"/></linearGradient><linearGradient id="linear-gradient-2" x1="374.93" y1="196.73" x2="376.18" y2="196.73" gradientTransform="matrix(1, 0, 0, 1, 0, 0)" xlink:href="#linear-gradient"/><linearGradient id="linear-gradient-3" x1="382.54" y1="144.75" x2="391.06" y2="144.75" gradientTransform="matrix(1, 0, 0, 1, 0, 0)" xlink:href="#linear-gradient"/><linearGradient id="linear-gradient-4" x1="84.4" y1="186.3" x2="92.92" y2="186.3" gradientTransform="matrix(1, 0, 0, 1, 0, 0)" xlink:href="#linear-gradient"/><linearGradient id="linear-gradient-5" x1="374.93" y1="208.37" x2="398.67" y2="208.37" gradientTransform="matrix(1, 0, 0, 1, 0, 0)" xlink:href="#linear-gradient"/><linearGradient id="linear-gradient-6" x1="371.22" y1="216.68" x2="402.37" y2="247.84" gradientTransform="matrix(1, 0, 0, 1, 0, 0)" xlink:href="#linear-gradient"/><linearGradient id="linear-gradient-7" x1="372.48" y1="213.58" x2="401.12" y2="213.58" gradientUnits="userSpaceOnUse"><stop offset="0" stop-color="#202130"/><stop offset="0.27" stop-color="#1c1d2b"/><stop offset="0.61" stop-color="#12131b"/><stop offset="0.98" stop-color="#010102"/><stop offset="1"/></linearGradient><linearGradient id="linear-gradient-8" x1="372.48" y1="205.62" x2="401.12" y2="205.62" xlink:href="#linear-gradient-7"/><linearGradient id="linear-gradient-9" x1="379.96" y1="200.51" x2="393.64" y2="186.83" xlink:href="#linear-gradient-7"/><linearGradient id="linear-gradient-10" x1="397.41" y1="196.73" x2="398.67" y2="196.73" gradientTransform="matrix(1, 0, 0, 1, 0, 0)" xlink:href="#linear-gradient"/><radialGradient id="radial-gradient" cx="386.8" cy="504.8" fx="646.8128461010923" r="260.02" gradientTransform="matrix(0, -1, 0.82, 0, -25.53, 891.41)" gradientUnits="userSpaceOnUse"><stop offset="0" stop-color="#fff"/><stop offset="0.05" stop-color="#fff" stop-opacity="0.93"/><stop offset="0.32" stop-color="#fff" stop-opacity="0.61"/><stop offset="0.56" stop-color="#fff" stop-opacity="0.35"/><stop offset="0.76" stop-color="#fff" stop-opacity="0.16"/><stop offset="0.91" stop-color="#fff" stop-opacity="0.04"/><stop offset="1" stop-color="#fff" stop-opacity="0"/></radialGradient><linearGradient id="linear-gradient-11" x1="409.08" y1="-161.56" x2="432.82" y2="-161.56" gradientTransform="translate(-327.57 409.72)" xlink:href="#linear-gradient"/><linearGradient id="linear-gradient-12" x1="405.37" y1="-153.24" x2="436.52" y2="-122.09" gradientTransform="matrix(0.87, -0.5, 0.5, 0.87, -190.07, 598.81)" xlink:href="#linear-gradient"/><linearGradient id="linear-gradient-13" x1="406.63" y1="-156.35" x2="435.27" y2="-156.35" gradientTransform="matrix(0.87, -0.5, 0.5, 0.87, -190.07, 598.81)" xlink:href="#linear-gradient-7"/><linearGradient id="linear-gradient-14" x1="406.63" y1="-164.31" x2="435.27" y2="-164.31" gradientTransform="matrix(0.87, -0.5, 0.5, 0.87, -190.07, 598.81)" xlink:href="#linear-gradient-7"/><linearGradient id="linear-gradient-15" x1="414.11" y1="-169.42" x2="427.78" y2="-183.1" gradientTransform="translate(-334.94 411.67)" xlink:href="#linear-gradient-7"/><linearGradient id="linear-gradient-16" x1="431.56" y1="-173.2" x2="432.82" y2="-173.2" gradientTransform="matrix(1, 0, 0, 1, -334.86, 405.78)" xlink:href="#linear-gradient"/><radialGradient id="radial-gradient-2" cx="420.96" cy="134.86" fx="680.9632891030841" r="260.01" gradientTransform="matrix(0, -1, 0.82, 0, 137.61, 924.01)" xlink:href="#radial-gradient"/><linearGradient id="linear-gradient-17" x1="2376.73" y1="976.85" x2="2400.47" y2="976.85" gradientTransform="matrix(0, -1, -1, 0, 1657.04, 2636.85)" xlink:href="#linear-gradient"/><linearGradient id="linear-gradient-18" x1="2373.02" y1="985.16" x2="2404.18" y2="1016.31" gradientTransform="matrix(-0.87, -0.5, -0.5, 0.87, 3236.98, 598.81)" xlink:href="#linear-gradient"/><linearGradient id="linear-gradient-19" x1="2374.28" y1="982.05" x2="2402.92" y2="982.05" gradientTransform="matrix(-0.87, -0.5, -0.5, 0.87, 3236.98, 598.81)" xlink:href="#linear-gradient-7"/><linearGradient id="linear-gradient-20" x1="2374.28" y1="974.09" x2="2402.92" y2="974.09" gradientTransform="matrix(-0.87, -0.5, -0.5, 0.87, 3236.98, 598.81)" xlink:href="#linear-gradient-7"/><linearGradient id="linear-gradient-21" x1="2381.76" y1="968.98" x2="2395.44" y2="955.3" gradientTransform="matrix(0, -1, -1, 0, 1649.91, 2624.03)" xlink:href="#linear-gradient-7"/><linearGradient id="linear-gradient-22" x1="2399.21" y1="965.21" x2="2400.47" y2="965.21" gradientTransform="matrix(0, -1, -1, 0, 1640.82, 2632.66)" xlink:href="#linear-gradient"/><radialGradient id="radial-gradient-3" cx="2388.61" cy="1273.26" fx="2648.615797275499" r="260.01" gradientTransform="matrix(1, 0, 0, -0.82, -1850.36, 1556.03)" xlink:href="#radial-gradient"/><linearGradient id="linear-gradient-23" x1="54.43" y1="122.53" x2="719.17" y2="122.53" xlink:href="#linear-gradient-7"/></defs><title>lights</title><g id="Ebene_2" data-name="Ebene 2"><g id="Objects"><rect class="cls-1" x="194.84" width="9.72" height="122.53"/><rect class="cls-1" x="569.03" width="9.72" height="122.53"/><line class="cls-2" x1="386.8" y1="144.75" x2="386.8" y2="122.53"/><line class="cls-2" x1="684.94" y1="186.3" x2="627.89" y2="122.53"/><rect class="cls-1" x="683.68" y="185.73" width="2.5" height="57.9"/><path class="cls-3" d="M684.94,186.3s-7.53,17.1,1.25,26.69,2.25,29.56-1.25,33.09"/><path class="cls-4" d="M680.67,186.3a4.27,4.27,0,1,0,4.27-4.26A4.27,4.27,0,0,0,680.67,186.3Z"/><line class="cls-2" x1="88.66" y1="186.3" x2="145.7" y2="122.53"/><rect class="cls-5" x="374.93" y="192.75" width="1.26" height="7.96"/><rect class="cls-1" x="385.54" y="144.18" width="2.5" height="57.9"/><path class="cls-3" d="M386.8,144.75s7.52,17.11-1.26,26.69-2.25,29.56,1.26,33.09"/><path class="cls-6" d="M391.06,144.75a4.26,4.26,0,1,1-4.26-4.26A4.26,4.26,0,0,1,391.06,144.75Z"/><rect class="cls-1" x="87.41" y="185.73" width="2.51" height="57.9"/><path class="cls-3" d="M88.66,186.3s7.52,17.1-1.25,26.69-2.26,29.56,1.25,33.09"/><path class="cls-7" d="M92.92,186.3A4.26,4.26,0,1,1,88.66,182,4.26,4.26,0,0,1,92.92,186.3Z"/><rect class="cls-8" x="374.93" y="200.71" width="23.74" height="15.32"/><path class="cls-9" d="M407.53,236.71c-1.1-1.38-9.18-12.87-9.18-24.05H375.24c0,11.18-8.07,22.67-9.18,24.05s0,6,0,6h41.47S408.64,238.09,407.53,236.71Z"/><path class="cls-10" d="M401.12,213.58a2.45,2.45,0,0,1-2.45,2.45H374.93a2.45,2.45,0,0,1-2.45-2.45h0a2.45,2.45,0,0,1,2.45-2.45h23.74a2.45,2.45,0,0,1,2.45,2.45Z"/><path class="cls-11" d="M401.12,205.62a2.45,2.45,0,0,1-2.45,2.45H374.93a2.45,2.45,0,0,1-2.45-2.45h0a2.45,2.45,0,0,1,2.45-2.46h23.74a2.46,2.46,0,0,1,2.45,2.46Z"/><rect class="cls-12" x="376.18" y="190.61" width="21.23" height="6.13"/><rect class="cls-13" x="397.41" y="192.75" width="1.25" height="7.96"/><path class="cls-14" d="M407.53,242.68c0,.67-9.28,1.21-20.73,1.21s-20.74-.54-20.74-1.21,9.28-1.21,20.74-1.21S407.53,242,407.53,242.68Z"/><ellipse class="cls-15" cx="386.8" cy="516.95" rx="235.08" ry="282.77"/><rect class="cls-16" x="81.52" y="240.5" width="23.74" height="15.32" transform="translate(-111.72 80.13) rotate(-30.05)"/><path class="cls-17" d="M125.53,262.3c-1.65-.64-14.39-6.54-20-16.22l-10,5.79-10,5.79c5.6,9.67,4.36,23.66,4.09,25.41s3,5.17,3,5.17l17.95-10.39,18-10.38S127.18,262.94,125.53,262.3Z"/><path class="cls-18" d="M108.39,245.49a2.45,2.45,0,0,1-.89,3.35L87,260.73a2.45,2.45,0,0,1-3.35-.89h0a2.46,2.46,0,0,1,.9-3.35l20.55-11.89a2.44,2.44,0,0,1,3.34.89Z"/><path class="cls-19" d="M104.41,238.6a2.46,2.46,0,0,1-.9,3.35L83,253.84a2.46,2.46,0,0,1-3.35-.9h0a2.46,2.46,0,0,1,.9-3.35l20.55-11.89a2.46,2.46,0,0,1,3.35.9Z"/><rect class="cls-20" x="75.41" y="232.37" width="21.23" height="6.13" transform="translate(-106.34 74.74) rotate(-30.06)"/><rect class="cls-21" x="96.66" y="228.47" width="1.26" height="7.97" transform="translate(-103.28 79.91) rotate(-30.03)"/><path class="cls-14" d="M128.52,267.47c.34.58-7.43,5.69-17.34,11.43S93,288.82,92.62,288.24s7.43-5.7,17.35-11.43S128.19,266.89,128.52,267.47Z"/><ellipse class="cls-22" cx="247.93" cy="515.24" rx="235.08" ry="282.77" transform="translate(-224.71 193.44) rotate(-30.05)"/><rect class="cls-23" x="672.54" y="236.29" width="15.32" height="23.74" transform="translate(124.78 712.66) rotate(-59.95)"/><path class="cls-24" d="M648.06,262.3c1.65-.64,14.39-6.54,20-16.22l10,5.79,10,5.79c-5.6,9.67-4.37,23.66-4.1,25.41s-3,5.17-3,5.17l-18-10.39-17.95-10.38S646.41,262.94,648.06,262.3Z"/><path class="cls-25" d="M665.2,245.49a2.45,2.45,0,0,0,.89,3.35l20.55,11.89a2.45,2.45,0,0,0,3.35-.89h0a2.45,2.45,0,0,0-.89-3.35L668.55,244.6a2.45,2.45,0,0,0-3.35.89Z"/><path class="cls-26" d="M669.19,238.6a2.45,2.45,0,0,0,.89,3.35l20.55,11.89a2.46,2.46,0,0,0,3.35-.9h0a2.45,2.45,0,0,0-.9-3.35L672.54,237.7a2.46,2.46,0,0,0-3.35.9Z"/><rect class="cls-27" x="684.5" y="224.81" width="6.13" height="21.23" transform="translate(139.43 712.63) rotate(-59.94)"/><rect class="cls-28" x="672.32" y="231.82" width="7.96" height="1.26" transform="translate(136.56 701.59) rotate(-59.97)"/><path class="cls-14" d="M645.07,267.47c-.33.58,7.43,5.69,17.34,11.43s18.23,9.92,18.56,9.34-7.43-5.7-17.35-11.43S645.4,266.89,645.07,267.47Z"/><ellipse class="cls-29" cx="525.67" cy="515.24" rx="282.77" ry="235.08" transform="translate(-183.57 712.19) rotate(-59.95)"/><path class="cls-30" d="M719.17,122.53a4.06,4.06,0,0,1-4,4H58.48a4.05,4.05,0,0,1-4-4h0a4,4,0,0,1,4-4H715.12a4.05,4.05,0,0,1,4,4Z"/></g></g></svg>